<?xml version="1.0" encoding="utf-8"?>
<?xml-stylesheet type="text/xsl" href="rss1.xsl"?>
<rss version="2.0" xmlns:atom="http://www.w3.org/2005/Atom" xmlns:content="http://purl.org/rss/1.0/modules/content/" xmlns:dc="http://purl.org/dc/elements/1.1/" xmlns:media="http://search.yahoo.com/mrss/">
<channel>
 <title>Getty</title>
 <link>http://www.gettyimg.com/</link>
 <atom:link href="http://www.gettyimg.com/" rel="self" type="application/rss+xml" />

 
                <item>
                <title><![CDATA[【Helpdesk】(Help) me download premium link rapidgator]]></title>
                <link><![CDATA[https://sharemania.us/threads/help-me-download-premium-link-rapidgator.249681/]]></link>
                <description><![CDATA[<article>
<blockquote class="messageText SelectQuoteContainer ugc baseHtml">
<a href="https://rapidgator.net/file/15ec8793e6e0f004906a421e7d7a9013/ls23wbrip.part1.rar.html" target="_blank" class="externalLink" rel="nofollow">https://rapidgator.net/file/15ec8793e6e0f004906a421e7d7a9013/ls23wbrip.part1.rar.html</a><br>
<a href="https://rapidgator.net/file/ace121d6eec94bcc3837de5ea58a511b/ls23wbrip.part2.rar.html" target="_blank" class="externalLink" rel="nofollow">https://rapidgator.net/file/ace121d6eec94bcc3837de5ea58a511b/ls23wbrip.part2.rar.html</a><br>
<a href="https://rapidgator.net/file/af968b113ad336a004301f806463bed3/ls23wbrip.part3.rar.html" target="_blank" class="externalLink" rel="nofollow">https://rapidgator.net/file/af968b113ad336a004301f806463bed3/ls23wbrip.part3.rar.html</a><br>
<a href="https://rapidgator.net/file/7bee946ff38e1d6b458fb2c793d9d115/ls23wbrip.part4.rar.html" target="_blank" class="externalLink" rel="nofollow">https://rapidgator.net/file/7bee946ff38e1d6b458fb2c793d9d115/ls23wbrip.part4.rar.html</a><br>
<a href="https://rapidgator.net/file/b82530aad1cf049167170134b6dcec6c/ls23wbrip.part5.rar.html" target="_blank" class="externalLink" rel="nofollow">https://rapidgator.net/file/b82530aad1cf049167170134b6dcec6c/ls23wbrip.part5.rar.html</a><br>
<a href="https://rapidgator.net/file/6766d2ebb67164dcd50c4af42ee65768/ls23wbrip.part6.rar.html" target="_blank" class="externalLink" rel="nofollow">https://rapidgator.net/file/6766d2ebb67164dcd50c4af42ee65768/ls23wbrip.part6.rar.html</a><br>
<a href="https://rapidgator.net/file/8d9dd3cac153dd83efbda700cde7bc6f/ls23wbrip.part7.rar.html" target="_blank" class="externalLink" rel="nofollow">https://rapidgator.net/file/8d9dd3cac153dd83efbda700cde7bc6f/ls23wbrip.part7.rar.html</a><br>
<br>
<br>
<a href="https://rapidgator.net/file/213bf3d238aaa89d87567047dd34780e/les230907.part01.rar.html" target="_blank" class="externalLink" rel="nofollow">https://rapidgator.net/file/213bf3d238aaa89d87567047dd34780e/les230907.part01.rar.html</a><br>
<a href="https://rapidgator.net/file/b8952d4586d7b4f3604eb9b2de5e80c0/les230907.part02.rar.html" target="_blank" class="externalLink" rel="nofollow">https://rapidgator.net/file/b8952d4586d7b4f3604eb9b2de5e80c0/les230907.part02.rar.html</a><br>
<a href="https://rapidgator.net/file/82abbd8c0357eab17a82b0c49f0c059a/les230907.part03.rar.html" target="_blank" class="externalLink" rel="nofollow">https://rapidgator.net/file/82abbd8c0357eab17a82b0c49f0c059a/les230907.part03.rar.html</a><br>
<a href="https://rapidgator.net/file/e0110b2cfc641dc6022ff8c69d574f31/les230907.part04.rar.html" target="_blank" class="externalLink" rel="nofollow">https://rapidgator.net/file/e0110b2cfc641dc6022ff8c69d574f31/les230907.part04.rar.html</a><br>
<a href="https://rapidgator.net/file/352e495bd3c500a93f16be710c9c0980/les230907.part05.rar.html" target="_blank" class="externalLink" rel="nofollow">https://rapidgator.net/file/352e495bd3c500a93f16be710c9c0980/les230907.part05.rar.html</a><br>
<a href="https://rapidgator.net/file/d5a9ca9655ff018c9202129d1d53bff6/les230907.part06.rar.html" target="_blank" class="externalLink" rel="nofollow">https://rapidgator.net/file/d5a9ca9655ff018c9202129d1d53bff6/les230907.part06.rar.html</a><br>
<a href="https://rapidgator.net/file/a2f7537bc2d03c8dfb23ae6b0478c5a0/les230907.part07.rar.html" target="_blank" class="externalLink" rel="nofollow">https://rapidgator.net/file/a2f7537bc2d03c8dfb23ae6b0478c5a0/les230907.part07.rar.html</a><br>
<a href="https://rapidgator.net/file/e0a3149654113f8600dba08a210b4c7e/les230907.part08.rar.html" target="_blank" class="externalLink" rel="nofollow">https://rapidgator.net/file/e0a3149654113f8600dba08a210b4c7e/les230907.part08.rar.html</a><br>
<a href="https://rapidgator.net/file/4bb0ec1ab6580ce6d82cab11dab0c7b6/les230907.part09.rar.html" target="_blank" class="externalLink" rel="nofollow">https://rapidgator.net/file/4bb0ec1ab6580ce6d82cab11dab0c7b6/les230907.part09.rar.html</a><br>
<a href="https://rapidgator.net/file/33675b0d9880830bbe5ebe0f9cf54d3b/les230907.part10.rar.html" target="_blank" class="externalLink" rel="nofollow">https://rapidgator.net/file/33675b0d9880830bbe5ebe0f9cf54d3b/les230907.part10.rar.html</a><br>
<a href="https://rapidgator.net/file/838b1f100fcde4fed616a61e70d0a6e6/les230907.part11.rar.html" target="_blank" class="externalLink" rel="nofollow">https://rapidgator.net/file/838b1f100fcde4fed616a61e70d0a6e6/les230907.part11.rar.html</a><br>
<a href="https://rapidgator.net/file/33ece1533848c936e402340be5010ec3/les230907.part12.rar.html" target="_blank" class="externalLink" rel="nofollow">https://rapidgator.net/file/33ece1533848c936e402340be5010ec3/les230907.part12.rar.html</a><br>
<br>
I really need these files, someone please help me <img src="styles/default/xenforo/smilies/unhappy-48.png" class="mceSmilie" alt=":(" title="Frown    :(">(<br>
By the way, may I ask what type of jdownloader do you use to download rapidgator? I tried and it didn't work
<div class="messageTextEndMarker">&nbsp;</div>
</blockquote>
</article>]]></description>
                <author><![CDATA[Cruel Summer]]></author>
                </item>

                
                <item>
                <title><![CDATA[【Cinema Center】MOVIE - Descendants: The Rise of Red (2024) 1080p/2160p Disney+ WEB-DL DDP5.1 DV/HDR H.264-LAZY]]></title>
                <link><![CDATA[https://sharemania.us/threads/descendants-the-rise-of-red-2024-1080p-2160p-disney-web-dl-ddp5-1-dv-hdr-h-264-lazy.249682/]]></link>
                <description><![CDATA[<article>
<blockquote class="messageText SelectQuoteContainer ugc baseHtml">
Descendants: The Rise of Red:<img src="https://lumiere-a.akamaihd.net/v1/images/ror_5120x2880_pre-premiere_act469771_7f58ade5.jpeg" class="bbCodeImage LbImage" alt="[​IMG]" data-url="https://lumiere-a.akamaihd.net/v1/images/ror_5120x2880_pre-premiere_act469771_7f58ade5.jpeg" style=""> <br>
<br>
<div class="bbCodeBlock bbCodeQuote">
<aside>
<blockquote class="quoteContainer"><div class="quote"><i><b>Synopsis:</b></i><br>
Follows Red, daughter of the Queen of Hearts, and Chloe, daughter of Cinderella, as they team up to save Auradon by traveling in back in time using the White Rabbit's pocket watch, to stop an event that would cause grave consequences.</div><div class="quoteExpand">Click to expand...</div></blockquote>
</aside>
</div>
<div class="ToggleTriggerAnchor bbCodeSpoilerContainer">
<button type="button" class="button bbCodeSpoilerButton ToggleTrigger Tooltip JsOnly" data-target="> .SpoilerTarget"><span>Spoiler: <span class="SpoilerTitle">MediaInfo 1080p</span></span></button>
<div class="SpoilerTarget bbCodeSpoilerText">General<br>
Unique ID : 295133964508930473984847896627280223150 (0xDE08BBE676B4A39C5510187B7B4A1BAE)<br>
Complete name : Descendants.The.Rise.of.Red.2024.1080p.DSNP.WEB-DL.DDP5.1.H.264-LAZY.mkv<br>
Format : Matroska<br>
Format version : Version 4<br>
File size : 4.53 GiB<br>
Duration : 1 h 31 min<br>
Overall bit rate mode : Variable<br>
Overall bit rate : 7 065 kb/s<br>
Encoded date : UTC 2024-07-13 00:50:05<br>
Writing application : mkvmerge v85.0 ('Shame For You') 64-bit<br>
Writing library : libebml v1.4.5 + libmatroska v1.7.1<br>
<br>
Video<br>
ID : 1<br>
Format : AVC<br>
Format/Info : Advanced Video Codec<br>
Format profile : High@L4<br>
Format settings : CABAC / 4 Ref Frames<br>
Format settings, CABAC : Yes<br>
Format settings, Reference frames : 4 frames<br>
Codec ID : V_MPEG4/ISO/AVC<br>
Duration : 1 h 31 min<br>
Bit rate mode : Variable<br>
Bit rate : 6 803 kb/s<br>
Maximum bit rate : 12.7 Mb/s<br>
Width : 1 920 pixels<br>
Height : 1 080 pixels<br>
Display aspect ratio : 16:9<br>
Frame rate mode : Constant<br>
Frame rate : 24.000 FPS<br>
Color space : YUV<br>
Chroma subsampling : 4:2:0<br>
Bit depth : 8 bits<br>
Scan type : Progressive<br>
Bits/(Pixel*Frame) : 0.137<br>
Stream size : 4.36 GiB (96%)<br>
Default : Yes<br>
Forced : No<br>
Color range : Limited<br>
Color primaries : BT.709<br>
Transfer characteristics : BT.709<br>
Matrix coefficients : BT.709<br>
<br>
Audio<br>
ID : 2<br>
Format : E-AC-3<br>
Format/Info : Enhanced AC-3<br>
Commercial name : Dolby Digital Plus<br>
Codec ID : A_EAC3<br>
Duration : 1 h 31 min<br>
Bit rate mode : Constant<br>
Bit rate : 256 kb/s<br>
Channel(s) : 6 channels<br>
Channel layout : L R C LFE Ls Rs<br>
Sampling rate : 48.0 kHz<br>
Frame rate : 31.250 FPS (1536 SPF)<br>
Compression mode : Lossy<br>
Stream size : 168 MiB (4%)<br>
Language : English<br>
Service kind : Complete Main<br>
Default : Yes<br>
Forced : No<br>
<br>
Text #1<br>
ID : 3<br>
Format : UTF-8<br>
Codec ID : S_TEXT/UTF8<br>
Codec ID/Info : UTF-8 Plain Text<br>
Duration : 1 h 31 min<br>
Bit rate : 91 b/s<br>
Count of elements : 1788<br>
Stream size : 61.6 KiB (0%)<br>
Title : SDH<br>
Language : English<br>
Default : No<br>
Forced : No<br>
<br>
Text #2<br>
ID : 4<br>
Format : UTF-8<br>
Codec ID : S_TEXT/UTF8<br>
Codec ID/Info : UTF-8 Plain Text<br>
Duration : 1 h 31 min<br>
Bit rate : 70 b/s<br>
Count of elements : 1507<br>
Stream size : 47.0 KiB (0%)<br>
Language : Czech<br>
Default : No<br>
Forced : No<br>
<br>
Text #3<br>
ID : 5<br>
Format : UTF-8<br>
Codec ID : S_TEXT/UTF8<br>
Codec ID/Info : UTF-8 Plain Text<br>
Duration : 1 h 31 min<br>
Bit rate : 69 b/s<br>
Count of elements : 1490<br>
Stream size : 46.6 KiB (0%)<br>
Language : Danish<br>
Default : No<br>
Forced : No<br>
<br>
Text #4<br>
ID : 6<br>
Format : UTF-8<br>
Codec ID : S_TEXT/UTF8<br>
Codec ID/Info : UTF-8 Plain Text<br>
Duration : 1 h 31 min<br>
Bit rate : 78 b/s<br>
Count of elements : 1522<br>
Stream size : 52.5 KiB (0%)<br>
Language : German<br>
Default : No<br>
Forced : No<br>
<br>
Text #5<br>
ID : 7<br>
Format : UTF-8<br>
Codec ID : S_TEXT/UTF8<br>
Codec ID/Info : UTF-8 Plain Text<br>
Duration : 1 h 31 min<br>
Bit rate : 82 b/s<br>
Count of elements : 1081<br>
Stream size : 55.4 KiB (0%)<br>
Language : Greek<br>
Default : No<br>
Forced : No<br>
<br>
Text #6<br>
ID : 8<br>
Format : UTF-8<br>
Codec ID : S_TEXT/UTF8<br>
Codec ID/Info : UTF-8 Plain Text<br>
Duration : 1 h 31 min<br>
Bit rate : 75 b/s<br>
Count of elements : 1526<br>
Stream size : 50.8 KiB (0%)<br>
Title : Latin American<br>
Language : Spanish<br>
Default : No<br>
Forced : No<br>
<br>
Text #7<br>
ID : 9<br>
Format : UTF-8<br>
Codec ID : S_TEXT/UTF8<br>
Codec ID/Info : UTF-8 Plain Text<br>
Duration : 1 h 31 min<br>
Bit rate : 70 b/s<br>
Count of elements : 1527<br>
Stream size : 47.2 KiB (0%)<br>
Title : European<br>
Language : Spanish<br>
Default : No<br>
Forced : No<br>
<br>
Text #8<br>
ID : 10<br>
Format : UTF-8<br>
Codec ID : S_TEXT/UTF8<br>
Codec ID/Info : UTF-8 Plain Text<br>
Duration : 1 h 31 min<br>
Bit rate : 67 b/s<br>
Count of elements : 1526<br>
Stream size : 45.2 KiB (0%)<br>
Language : Finnish<br>
Default : No<br>
Forced : No<br>
<br>
Text #9<br>
ID : 11<br>
Format : UTF-8<br>
Codec ID : S_TEXT/UTF8<br>
Codec ID/Info : UTF-8 Plain Text<br>
Duration : 1 h 31 min<br>
Bit rate : 78 b/s<br>
Count of elements : 1527<br>
Stream size : 52.8 KiB (0%)<br>
Language : French<br>
Default : No<br>
Forced : No<br>
<br>
Text #10<br>
ID : 12<br>
Format : UTF-8<br>
Codec ID : S_TEXT/UTF8<br>
Codec ID/Info : UTF-8 Plain Text<br>
Duration : 1 h 31 min<br>
Bit rate : 73 b/s<br>
Count of elements : 1519<br>
Stream size : 49.4 KiB (0%)<br>
Language : Hungarian<br>
Default : No<br>
Forced : No<br>
<br>
Text #11<br>
ID : 13<br>
Format : UTF-8<br>
Codec ID : S_TEXT/UTF8<br>
Codec ID/Info : UTF-8 Plain Text<br>
Duration : 1 h 31 min<br>
Bit rate : 72 b/s<br>
Count of elements : 1517<br>
Stream size : 48.9 KiB (0%)<br>
Language : Italian<br>
Default : No<br>
Forced : No<br>
<br>
Text #12<br>
ID : 14<br>
Format : UTF-8<br>
Codec ID : S_TEXT/UTF8<br>
Codec ID/Info : UTF-8 Plain Text<br>
Duration : 1 h 30 min<br>
Bit rate : 60 b/s<br>
Count of elements : 1333<br>
Stream size : 40.2 KiB (0%)<br>
Language : Japanese<br>
Default : No<br>
Forced : No<br>
<br>
Text #13<br>
ID : 15<br>
Format : UTF-8<br>
Codec ID : S_TEXT/UTF8<br>
Codec ID/Info : UTF-8 Plain Text<br>
Duration : 1 h 31 min<br>
Bit rate : 71 b/s<br>
Count of elements : 1530<br>
Stream size : 47.8 KiB (0%)<br>
Language : Korean<br>
Default : No<br>
Forced : No<br>
<br>
Text #14<br>
ID : 16<br>
Format : UTF-8<br>
Codec ID : S_TEXT/UTF8<br>
Codec ID/Info : UTF-8 Plain Text<br>
Duration : 1 h 31 min<br>
Bit rate : 64 b/s<br>
Count of elements : 1526<br>
Stream size : 43.2 KiB (0%)<br>
Language : Dutch<br>
Default : No<br>
Forced : No<br>
<br>
Text #15<br>
ID : 17<br>
Format : UTF-8<br>
Codec ID : S_TEXT/UTF8<br>
Codec ID/Info : UTF-8 Plain Text<br>
Duration : 1 h 31 min<br>
Bit rate : 71 b/s<br>
Count of elements : 1529<br>
Stream size : 47.9 KiB (0%)<br>
Language : Norwegian<br>
Default : No<br>
Forced : No<br>
<br>
Text #16<br>
ID : 18<br>
Format : UTF-8<br>
Codec ID : S_TEXT/UTF8<br>
Codec ID/Info : UTF-8 Plain Text<br>
Duration : 1 h 31 min<br>
Bit rate : 74 b/s<br>
Count of elements : 1518<br>
Stream size : 49.6 KiB (0%)<br>
Language : Polish<br>
Default : No<br>
Forced : No<br>
<br>
Text #17<br>
ID : 19<br>
Format : UTF-8<br>
Codec ID : S_TEXT/UTF8<br>
Codec ID/Info : UTF-8 Plain Text<br>
Duration : 1 h 31 min<br>
Bit rate : 76 b/s<br>
Count of elements : 1529<br>
Stream size : 51.5 KiB (0%)<br>
Title : Brazilian<br>
Language : Portuguese<br>
Default : No<br>
Forced : No<br>
<br>
Text #18<br>
ID : 20<br>
Format : UTF-8<br>
Codec ID : S_TEXT/UTF8<br>
Codec ID/Info : UTF-8 Plain Text<br>
Duration : 1 h 31 min<br>
Bit rate : 75 b/s<br>
Count of elements : 1529<br>
Stream size : 50.4 KiB (0%)<br>
Title : European<br>
Language : Portuguese<br>
Default : No<br>
Forced : No<br>
<br>
Text #19<br>
ID : 21<br>
Format : UTF-8<br>
Codec ID : S_TEXT/UTF8<br>
Codec ID/Info : UTF-8 Plain Text<br>
Duration : 1 h 31 min<br>
Bit rate : 76 b/s<br>
Count of elements : 1527<br>
Stream size : 51.5 KiB (0%)<br>
Language : Romanian<br>
Default : No<br>
Forced : No<br>
<br>
Text #20<br>
ID : 22<br>
Format : UTF-8<br>
Codec ID : S_TEXT/UTF8<br>
Codec ID/Info : UTF-8 Plain Text<br>
Duration : 1 h 31 min<br>
Bit rate : 72 b/s<br>
Count of elements : 1527<br>
Stream size : 48.9 KiB (0%)<br>
Language : Slovak<br>
Default : No<br>
Forced : No<br>
<br>
Text #21<br>
ID : 23<br>
Format : UTF-8<br>
Codec ID : S_TEXT/UTF8<br>
Codec ID/Info : UTF-8 Plain Text<br>
Duration : 1 h 31 min<br>
Bit rate : 55 b/s<br>
Count of elements : 1528<br>
Stream size : 37.4 KiB (0%)<br>
Language : Swedish<br>
Default : No<br>
Forced : No<br>
<br>
Text #22<br>
ID : 24<br>
Format : UTF-8<br>
Codec ID : S_TEXT/UTF8<br>
Codec ID/Info : UTF-8 Plain Text<br>
Duration : 1 h 31 min<br>
Bit rate : 71 b/s<br>
Count of elements : 1526<br>
Stream size : 48.1 KiB (0%)<br>
Language : Turkish<br>
Default : No<br>
Forced : No<br>
<br>
Text #23<br>
ID : 25<br>
Format : UTF-8<br>
Codec ID : S_TEXT/UTF8<br>
Codec ID/Info : UTF-8 Plain Text<br>
Duration : 1 h 31 min<br>
Bit rate : 59 b/s<br>
Count of elements : 1519<br>
Stream size : 40.1 KiB (0%)<br>
Title : Traditional<br>
Language : Chinese<br>
Default : No<br>
Forced : No<br>
<br>
Menu<br>
00:00:00.000 : en:Scene 1<br>
00:11:38.250 : en:Scene 2<br>
00:25:44.208 : en:Scene 3<br>
00:39:08.292 : en:Scene 4<br>
00:48:20.458 : en:Scene 5<br>
00:56:44.125 : en:Scene 6<br>
01:06:22.667 : en:Scene 7<br>
01:17:01.000 : en:Scene 8<br>
01:31:08.792 : en:Credits</div>
</div>
<div class="ToggleTriggerAnchor bbCodeSpoilerContainer">
<button type="button" class="button bbCodeSpoilerButton ToggleTrigger Tooltip JsOnly" data-target="> .SpoilerTarget"><span>Spoiler: <span class="SpoilerTitle">MediaInfo 2160p</span></span></button>
<div class="SpoilerTarget bbCodeSpoilerText">General<br>
Unique ID : 271509255268357906221011578561357810885 (0xCC42C7CE30A8A635408A424D6D520CC5)<br>
Complete name : Descendants.The.Rise.of.Red.2024.2160p.DSNP.WEB-DL.DDP5.1.DV.HDR.H.265-LAZY.mkv<br>
Format : Matroska<br>
Format version : Version 4<br>
File size : 9.22 GiB<br>
Duration : 1 h 31 min<br>
Overall bit rate : 14.4 Mb/s<br>
Frame rate : 24.000 FPS<br>
Encoded date : 2024-07-12 18:03:41 UTC<br>
Writing application : mkvmerge v85.0 ('Shame For You') 64-bit<br>
Writing library : libebml v1.4.5 + libmatroska v1.7.1<br>
<br>
Video<br>
ID : 1<br>
Format : HEVC<br>
Format/Info : High Efficiency Video Coding<br>
Format profile : Main 10@L5@High<br>
HDR format : Dolby Vision, Version 1.0, Profile 8.1, dvhe.08.06, BL+RPU, HDR10 compatible / SMPTE ST 2086, Version HDR10, HDR10 compatible<br>
Codec ID : V_MPEGH/ISO/HEVC<br>
Duration : 1 h 31 min<br>
Bit rate : 14.1 Mb/s<br>
Width : 3 840 pixels<br>
Height : 2 160 pixels<br>
Display aspect ratio : 16:9<br>
Frame rate mode : Constant<br>
Frame rate : 24.000 FPS<br>
Color space : YUV<br>
Chroma subsampling : 4:2:0<br>
Bit depth : 10 bits<br>
Bits/(Pixel*Frame) : 0.071<br>
Stream size : 9.06 GiB (98%)<br>
Default : Yes<br>
Forced : No<br>
Color range : Limited<br>
Color primaries : BT.2020<br>
Transfer characteristics : PQ<br>
Matrix coefficients : BT.2020 non-constant<br>
Mastering display color primaries : BT.2020<br>
Mastering display luminance : min: 0.0000 cd/m2, max: 1000 cd/m2<br>
<br>
Audio<br>
ID : 2<br>
Format : E-AC-3<br>
Format/Info : Enhanced AC-3<br>
Commercial name : Dolby Digital Plus<br>
Codec ID : A_EAC3<br>
Duration : 1 h 31 min<br>
Bit rate mode : Constant<br>
Bit rate : 256 kb/s<br>
Channel(s) : 6 channels<br>
Channel layout : L R C LFE Ls Rs<br>
Sampling rate : 48.0 kHz<br>
Frame rate : 31.250 FPS (1536 SPF)<br>
Compression mode : Lossy<br>
Stream size : 168 MiB (2%)<br>
Language : English<br>
Service kind : Complete Main<br>
Default : Yes<br>
Forced : No<br>
<br>
Text #1<br>
ID : 3<br>
Format : UTF-8<br>
Codec ID : S_TEXT/UTF8<br>
Codec ID/Info : UTF-8 Plain Text<br>
Duration : 1 h 31 min<br>
Bit rate : 91 b/s<br>
Frame rate : 0.326 FPS<br>
Count of elements : 1788<br>
Stream size : 61.6 KiB (0%)<br>
Title : SDH<br>
Language : English<br>
Default : No<br>
Forced : No<br>
<br>
Text #2<br>
ID : 4<br>
Format : UTF-8<br>
Codec ID : S_TEXT/UTF8<br>
Codec ID/Info : UTF-8 Plain Text<br>
Duration : 1 h 31 min<br>
Bit rate : 70 b/s<br>
Frame rate : 0.274 FPS<br>
Count of elements : 1507<br>
Stream size : 47.0 KiB (0%)<br>
Language : Czech<br>
Default : No<br>
Forced : No<br>
<br>
Text #3<br>
ID : 5<br>
Format : UTF-8<br>
Codec ID : S_TEXT/UTF8<br>
Codec ID/Info : UTF-8 Plain Text<br>
Duration : 1 h 31 min<br>
Bit rate : 69 b/s<br>
Frame rate : 0.271 FPS<br>
Count of elements : 1490<br>
Stream size : 46.6 KiB (0%)<br>
Language : Danish<br>
Default : No<br>
Forced : No<br>
<br>
Text #4<br>
ID : 6<br>
Format : UTF-8<br>
Codec ID : S_TEXT/UTF8<br>
Codec ID/Info : UTF-8 Plain Text<br>
Duration : 1 h 31 min<br>
Bit rate : 78 b/s<br>
Frame rate : 0.277 FPS<br>
Count of elements : 1522<br>
Stream size : 52.5 KiB (0%)<br>
Language : German<br>
Default : No<br>
Forced : No<br>
<br>
Text #5<br>
ID : 7<br>
Format : UTF-8<br>
Codec ID : S_TEXT/UTF8<br>
Codec ID/Info : UTF-8 Plain Text<br>
Duration : 1 h 31 min<br>
Bit rate : 82 b/s<br>
Frame rate : 0.197 FPS<br>
Count of elements : 1081<br>
Stream size : 55.4 KiB (0%)<br>
Language : Greek<br>
Default : No<br>
Forced : No<br>
<br>
Text #6<br>
ID : 8<br>
Format : UTF-8<br>
Codec ID : S_TEXT/UTF8<br>
Codec ID/Info : UTF-8 Plain Text<br>
Duration : 1 h 31 min<br>
Bit rate : 75 b/s<br>
Frame rate : 0.278 FPS<br>
Count of elements : 1526<br>
Stream size : 50.8 KiB (0%)<br>
Title : Latin American<br>
Language : Spanish<br>
Default : No<br>
Forced : No<br>
<br>
Text #7<br>
ID : 9<br>
Format : UTF-8<br>
Codec ID : S_TEXT/UTF8<br>
Codec ID/Info : UTF-8 Plain Text<br>
Duration : 1 h 31 min<br>
Bit rate : 70 b/s<br>
Frame rate : 0.278 FPS<br>
Count of elements : 1527<br>
Stream size : 47.2 KiB (0%)<br>
Title : European<br>
Language : Spanish<br>
Default : No<br>
Forced : No<br>
<br>
Text #8<br>
ID : 10<br>
Format : UTF-8<br>
Codec ID : S_TEXT/UTF8<br>
Codec ID/Info : UTF-8 Plain Text<br>
Duration : 1 h 31 min<br>
Bit rate : 67 b/s<br>
Frame rate : 0.278 FPS<br>
Count of elements : 1526<br>
Stream size : 45.2 KiB (0%)<br>
Language : Finnish<br>
Default : No<br>
Forced : No<br>
<br>
Text #9<br>
ID : 11<br>
Format : UTF-8<br>
Codec ID : S_TEXT/UTF8<br>
Codec ID/Info : UTF-8 Plain Text<br>
Duration : 1 h 31 min<br>
Bit rate : 78 b/s<br>
Frame rate : 0.278 FPS<br>
Count of elements : 1527<br>
Stream size : 52.8 KiB (0%)<br>
Language : French<br>
Default : No<br>
Forced : No<br>
<br>
Text #10<br>
ID : 12<br>
Format : UTF-8<br>
Codec ID : S_TEXT/UTF8<br>
Codec ID/Info : UTF-8 Plain Text<br>
Duration : 1 h 31 min<br>
Bit rate : 73 b/s<br>
Frame rate : 0.277 FPS<br>
Count of elements : 1519<br>
Stream size : 49.4 KiB (0%)<br>
Language : Hungarian<br>
Default : No<br>
Forced : No<br>
<br>
Text #11<br>
ID : 13<br>
Format : UTF-8<br>
Codec ID : S_TEXT/UTF8<br>
Codec ID/Info : UTF-8 Plain Text<br>
Duration : 1 h 31 min<br>
Bit rate : 72 b/s<br>
Frame rate : 0.276 FPS<br>
Count of elements : 1517<br>
Stream size : 48.9 KiB (0%)<br>
Language : Italian<br>
Default : No<br>
Forced : No<br>
<br>
Text #12<br>
ID : 14<br>
Format : UTF-8<br>
Codec ID : S_TEXT/UTF8<br>
Codec ID/Info : UTF-8 Plain Text<br>
Duration : 1 h 30 min<br>
Bit rate : 60 b/s<br>
Frame rate : 0.245 FPS<br>
Count of elements : 1333<br>
Stream size : 40.2 KiB (0%)<br>
Language : Japanese<br>
Default : No<br>
Forced : No<br>
<br>
Text #13<br>
ID : 15<br>
Format : UTF-8<br>
Codec ID : S_TEXT/UTF8<br>
Codec ID/Info : UTF-8 Plain Text<br>
Duration : 1 h 31 min<br>
Bit rate : 71 b/s<br>
Frame rate : 0.279 FPS<br>
Count of elements : 1530<br>
Stream size : 47.8 KiB (0%)<br>
Language : Korean<br>
Default : No<br>
Forced : No<br>
<br>
Text #14<br>
ID : 16<br>
Format : UTF-8<br>
Codec ID : S_TEXT/UTF8<br>
Codec ID/Info : UTF-8 Plain Text<br>
Duration : 1 h 31 min<br>
Bit rate : 64 b/s<br>
Frame rate : 0.278 FPS<br>
Count of elements : 1526<br>
Stream size : 43.2 KiB (0%)<br>
Language : Dutch<br>
Default : No<br>
Forced : No<br>
<br>
Text #15<br>
ID : 17<br>
Format : UTF-8<br>
Codec ID : S_TEXT/UTF8<br>
Codec ID/Info : UTF-8 Plain Text<br>
Duration : 1 h 31 min<br>
Bit rate : 71 b/s<br>
Frame rate : 0.279 FPS<br>
Count of elements : 1529<br>
Stream size : 47.9 KiB (0%)<br>
Language : Norwegian<br>
Default : No<br>
Forced : No<br>
<br>
Text #16<br>
ID : 18<br>
Format : UTF-8<br>
Codec ID : S_TEXT/UTF8<br>
Codec ID/Info : UTF-8 Plain Text<br>
Duration : 1 h 31 min<br>
Bit rate : 74 b/s<br>
Frame rate : 0.276 FPS<br>
Count of elements : 1518<br>
Stream size : 49.6 KiB (0%)<br>
Language : Polish<br>
Default : No<br>
Forced : No<br>
<br>
Text #17<br>
ID : 19<br>
Format : UTF-8<br>
Codec ID : S_TEXT/UTF8<br>
Codec ID/Info : UTF-8 Plain Text<br>
Duration : 1 h 31 min<br>
Bit rate : 76 b/s<br>
Frame rate : 0.278 FPS<br>
Count of elements : 1529<br>
Stream size : 51.5 KiB (0%)<br>
Title : Brazilian<br>
Language : Portuguese<br>
Default : No<br>
Forced : No<br>
<br>
Text #18<br>
ID : 20<br>
Format : UTF-8<br>
Codec ID : S_TEXT/UTF8<br>
Codec ID/Info : UTF-8 Plain Text<br>
Duration : 1 h 31 min<br>
Bit rate : 75 b/s<br>
Frame rate : 0.278 FPS<br>
Count of elements : 1529<br>
Stream size : 50.4 KiB (0%)<br>
Title : European<br>
Language : Portuguese<br>
Default : No<br>
Forced : No<br>
<br>
Text #19<br>
ID : 21<br>
Format : UTF-8<br>
Codec ID : S_TEXT/UTF8<br>
Codec ID/Info : UTF-8 Plain Text<br>
Duration : 1 h 31 min<br>
Bit rate : 76 b/s<br>
Frame rate : 0.278 FPS<br>
Count of elements : 1527<br>
Stream size : 51.5 KiB (0%)<br>
Language : Romanian<br>
Default : No<br>
Forced : No<br>
<br>
Text #20<br>
ID : 22<br>
Format : UTF-8<br>
Codec ID : S_TEXT/UTF8<br>
Codec ID/Info : UTF-8 Plain Text<br>
Duration : 1 h 31 min<br>
Bit rate : 72 b/s<br>
Frame rate : 0.278 FPS<br>
Count of elements : 1527<br>
Stream size : 48.9 KiB (0%)<br>
Language : Slovak<br>
Default : No<br>
Forced : No<br>
<br>
Text #21<br>
ID : 23<br>
Format : UTF-8<br>
Codec ID : S_TEXT/UTF8<br>
Codec ID/Info : UTF-8 Plain Text<br>
Duration : 1 h 31 min<br>
Bit rate : 55 b/s<br>
Frame rate : 0.278 FPS<br>
Count of elements : 1528<br>
Stream size : 37.4 KiB (0%)<br>
Language : Swedish<br>
Default : No<br>
Forced : No<br>
<br>
Text #22<br>
ID : 24<br>
Format : UTF-8<br>
Codec ID : S_TEXT/UTF8<br>
Codec ID/Info : UTF-8 Plain Text<br>
Duration : 1 h 31 min<br>
Bit rate : 71 b/s<br>
Frame rate : 0.278 FPS<br>
Count of elements : 1526<br>
Stream size : 48.1 KiB (0%)<br>
Language : Turkish<br>
Default : No<br>
Forced : No<br>
<br>
Text #23<br>
ID : 25<br>
Format : UTF-8<br>
Codec ID : S_TEXT/UTF8<br>
Codec ID/Info : UTF-8 Plain Text<br>
Duration : 1 h 31 min<br>
Bit rate : 59 b/s<br>
Frame rate : 0.277 FPS<br>
Count of elements : 1519<br>
Stream size : 40.1 KiB (0%)<br>
Title : Traditional<br>
Language : Chinese<br>
Default : No<br>
Forced : No<br>
<br>
Menu<br>
00:00:00.000 : en:Scene 1<br>
00:11:38.250 : en:Scene 2<br>
00:25:44.208 : en:Scene 3<br>
00:39:08.292 : en:Scene 4<br>
00:48:20.458 : en:Scene 5<br>
00:56:44.125 : en:Scene 6<br>
01:06:22.667 : en:Scene 7<br>
01:17:01.000 : en:Scene 8<br>
01:31:08.792 : en:Credits</div>
</div><br>
Screenshots:<br>
<img src="https://ptpimg.me/eo94z9.jpg" class="bbCodeImage LbImage" alt="[​IMG]" data-url="https://ptpimg.me/eo94z9.jpg" style=""> <br>
<div class="bbCodeBlock bbCodeVfcHH HiddenContent">
<div class="attribution type">Hidden Content:</div>
<blockquote>You must either reply or click 'Like' to see the hidden information contained here.</blockquote>
</div>
<div class="messageTextEndMarker">&nbsp;</div>
</blockquote>
</article>]]></description>
                <author><![CDATA[LazyRips]]></author>
                </item>

                </channel></rss>